<?xml version="1.0" encoding="UTF-8"?>
<svg version="1.1" xmlns="http://www.w3.org/2000/svg" width="512" height="512">
<path d="M0 0 C7.56968517 6.38228358 13.0745847 13.64316512 15.86938477 23.18774414 C16.13453384 24.08819962 16.39968292 24.98865509 16.67286682 25.91639709 C16.9720829 26.94584694 16.9720829 26.94584694 17.27734375 27.99609375 C18.29225199 27.99240658 19.30716022 27.98871941 20.35282326 27.9849205 C45.03999828 27.89614917 69.72715262 27.83040351 94.41445351 27.78884506 C106.35302017 27.76821388 118.29148145 27.74008251 130.22998047 27.69433594 C140.63475024 27.65448537 151.03944369 27.62866499 161.44428766 27.61973977 C166.95434477 27.61452204 172.46418351 27.60224667 177.97417068 27.57317352 C183.15993245 27.5460327 188.34538581 27.53764613 193.53121185 27.54366302 C195.43475139 27.5425622 197.33830119 27.53460046 199.24177933 27.51927185 C201.84122212 27.49936472 204.43950112 27.504157 207.03897095 27.51507568 C207.79190166 27.50342432 208.54483238 27.49177295 209.32057917 27.47976851 C214.43628211 27.53783443 217.33027354 28.78335543 221.27734375 31.99609375 C224.19936992 36.20178459 223.91383727 41.07491213 223.27734375 45.99609375 C221.23390486 50.08297153 219.56639059 52.43484813 215.27734375 53.99609375 C212.57589995 54.18156632 209.97977935 54.25733551 207.27947998 54.23660278 C206.06153838 54.23916606 206.06153838 54.23916606 204.8189919 54.24178112 C202.0950588 54.24507845 199.37137139 54.2340683 196.64746094 54.22314453 C194.69615688 54.22258047 192.7448524 54.22289688 190.79354858 54.22402954 C185.49226457 54.22460425 180.19107073 54.21283074 174.8898077 54.19888163 C169.35112399 54.18639403 163.81243829 54.18520532 158.27374268 54.18283081 C147.7836464 54.17661025 137.29359171 54.16019162 126.80351377 54.14013183 C114.86169514 54.11779077 102.91987454 54.10678391 90.97804022 54.09674096 C66.41111832 54.0758259 41.84423336 54.04063871 17.27734375 53.99609375 C16.97812767 55.02554359 16.97812767 55.02554359 16.67286682 56.07579041 C16.40771774 56.97624588 16.14256866 57.87670135 15.86938477 58.80444336 C15.60803238 59.69699326 15.34667999 60.58954315 15.07740784 61.50914001 C11.37176488 73.02792049 1.91168287 81.74336269 -8.47265625 87.37109375 C-22.71046727 93.97626381 -35.88921229 94.25264723 -50.72265625 89.99609375 C-63.54419569 85.1413361 -73.74632741 76.44017369 -79.72265625 63.99609375 C-80.27699121 62.27297503 -80.80603325 60.54159226 -81.31469727 58.80444336 C-81.57984634 57.90398788 -81.84499542 57.00353241 -82.11817932 56.07579041 C-82.31765671 55.38949051 -82.51713409 54.70319061 -82.72265625 53.99609375 C-83.73756449 53.99978092 -84.75247272 54.00346809 -85.79813576 54.007267 C-110.48531078 54.09603833 -135.17246512 54.16178399 -159.85976601 54.20334244 C-171.79833267 54.22397362 -183.73679395 54.25210499 -195.67529297 54.29785156 C-206.08006274 54.33770213 -216.48475619 54.36352251 -226.88960016 54.37244773 C-232.39965727 54.37766546 -237.90949601 54.38994083 -243.41948318 54.41901398 C-248.60524495 54.4461548 -253.79069831 54.45454137 -258.97652435 54.44852448 C-260.88006389 54.4496253 -262.78361369 54.45758704 -264.68709183 54.47291565 C-267.28653462 54.49282278 -269.88481362 54.4880305 -272.48428345 54.47711182 C-273.23721416 54.48876318 -273.99014488 54.50041455 -274.76589167 54.51241899 C-279.88159461 54.45435307 -282.77558604 53.20883207 -286.72265625 49.99609375 C-289.64468242 45.79040291 -289.35914977 40.91727537 -288.72265625 35.99609375 C-286.67921736 31.90921597 -285.01170309 29.55733937 -280.72265625 27.99609375 C-278.02121245 27.81062118 -275.42509185 27.73485199 -272.72479248 27.75558472 C-271.91283141 27.75387587 -271.10087035 27.75216702 -270.2643044 27.75040638 C-267.5403713 27.74710905 -264.81668389 27.7581192 -262.09277344 27.76904297 C-260.14146938 27.76960703 -258.1901649 27.76929062 -256.23886108 27.76815796 C-250.93757707 27.76758325 -245.63638323 27.77935676 -240.3351202 27.79330587 C-234.79643649 27.80579347 -229.25775079 27.80698218 -223.71905518 27.80935669 C-213.2289589 27.81557725 -202.73890421 27.83199588 -192.24882627 27.85205567 C-180.30700764 27.87439673 -168.36518704 27.88540359 -156.42335272 27.89544654 C-131.85643082 27.9163616 -107.28954586 27.95154879 -82.72265625 27.99609375 C-82.52317886 27.30979385 -82.32370148 26.62349396 -82.11817932 25.91639709 C-81.85303024 25.01594162 -81.58788116 24.11548615 -81.31469727 23.18774414 C-80.92266869 21.8489193 -80.92266869 21.8489193 -80.52272034 20.48304749 C-76.81707738 8.96426701 -67.35699537 0.24882481 -56.97265625 -5.37890625 C-37.92977589 -14.21323219 -17.0298654 -12.5341764 0 0 Z M-52.72265625 24.99609375 C-56.88780148 31.80450422 -58.55491905 38.0202419 -57.72265625 45.99609375 C-55.85292456 52.35724614 -52.51738777 58.67461094 -46.73046875 62.21484375 C-39.75504558 65.79198384 -33.02771619 67.55540849 -25.27734375 65.27734375 C-17.82514422 62.14489378 -12.91446861 58.30238722 -9.484375 50.86328125 C-6.81859824 44.32871053 -6.65743917 37.79489647 -9.41015625 31.24609375 C-13.62009536 22.92889698 -18.95279472 18.91938093 -27.72265625 15.99609375 C-37.63872788 14.90425193 -45.7643585 17.87597512 -52.72265625 24.99609375 Z " fill="#000000" transform="translate(288.72265625,343.00390625)"/>
<path d="M0 0 C13.52687209 -0.59567877 26.4871009 3.90830257 36.890625 12.484375 C43.55987682 18.82465027 48.44670305 25.68947754 51.64477539 34.31982422 C51.91189835 35.03870819 52.1790213 35.75759216 52.45423889 36.4982605 C52.65625412 37.04539703 52.85826935 37.59253357 53.06640625 38.15625 C54.36787598 38.1655957 55.6693457 38.17494141 57.01025391 38.18457031 C61.8523952 38.22453047 66.69390518 38.29030657 71.53564453 38.36376953 C73.62866081 38.39194413 75.72178279 38.41317609 77.81494141 38.42724609 C80.82899962 38.44872394 83.84179162 38.49539988 86.85546875 38.546875 C87.78694733 38.54810364 88.7184259 38.54933228 89.6781311 38.55059814 C95.42719856 38.67935327 98.65025228 39.39502665 103.06640625 43.15625 C105.98843242 47.36194084 105.70289977 52.23506838 105.06640625 57.15625 C103.00009812 61.28886626 101.317685 63.44064413 97.06640625 65.15625 C94.91497803 65.4347229 94.91497803 65.4347229 92.57324219 65.47509766 C91.25232574 65.50490219 91.25232574 65.50490219 89.90472412 65.53530884 C88.96292297 65.54686005 88.02112183 65.55841125 87.05078125 65.5703125 C86.07981506 65.58967865 85.10884888 65.6090448 84.10845947 65.6289978 C81.01119739 65.68871509 77.91389799 65.7351478 74.81640625 65.78125 C72.71482766 65.81943698 70.6132646 65.85848914 68.51171875 65.8984375 C63.36340757 65.99441031 58.21502313 66.0784706 53.06640625 66.15625 C52.74462402 66.96666748 52.4228418 67.77708496 52.09130859 68.61206055 C51.440896 70.21754761 51.440896 70.21754761 50.77734375 71.85546875 C50.35243652 72.91338623 49.9275293 73.97130371 49.48974609 75.0612793 C47.35133025 79.71114167 44.43955179 83.34762178 41.06640625 87.15625 C40.59074219 87.75953125 40.11507813 88.3628125 39.625 88.984375 C32.54699862 97.18968209 20.10501872 102.67402843 9.49609375 103.98046875 C8.69429688 104.03847656 7.8925 104.09648437 7.06640625 104.15625 C6.34710938 104.22457031 5.6278125 104.29289062 4.88671875 104.36328125 C-9.12564451 105.05620031 -21.6840576 99.85615581 -32.18359375 90.90625 C-39.07287394 84.38936333 -44.21259834 77.27958756 -46.93359375 68.15625 C-46.93359375 67.16625 -46.93359375 66.17625 -46.93359375 65.15625 C-47.67613675 65.15776888 -48.41867975 65.15928776 -49.18372405 65.16085267 C-93.17424872 65.25032796 -137.16476351 65.3189775 -181.15536091 65.36051132 C-186.43511707 65.36551426 -191.71487303 65.37069154 -196.99462891 65.37597656 C-198.04575144 65.3770258 -199.09687398 65.37807505 -200.17984872 65.37915608 C-217.20865464 65.39657035 -234.23740666 65.42811368 -251.26618059 65.46486118 C-268.73393788 65.50224216 -286.20166691 65.52447983 -303.66946256 65.53260398 C-314.45160484 65.53809765 -325.23359475 65.55546079 -336.01569013 65.58791587 C-343.40526109 65.60902865 -350.79475305 65.61545739 -358.184352 65.61025551 C-362.45041122 65.60768868 -366.71620383 65.61167596 -370.98221588 65.6330719 C-374.88706415 65.65251374 -378.79146611 65.65353566 -382.69633476 65.63984558 C-384.10963091 65.63815319 -385.52295472 65.64324773 -386.93619628 65.65578273 C-400.07601569 65.76556056 -400.07601569 65.76556056 -404.93359375 61.15625 C-407.85561992 56.95055916 -407.57008727 52.07743162 -406.93359375 47.15625 C-404.88020233 43.04946716 -403.20163211 40.79781897 -398.93359375 39.15625 C-396.17976546 38.90785301 -396.17976546 38.90785301 -392.94408798 38.91015434 C-391.09290883 38.9041812 -391.09290883 38.9041812 -389.20433211 38.89808738 C-387.83265213 38.90379346 -386.46097291 38.90968465 -385.08929443 38.91574097 C-383.63391172 38.91486905 -382.17852931 38.91311832 -380.72314858 38.91056263 C-376.71879195 38.90608236 -372.71454193 38.9141021 -368.71019888 38.92411876 C-364.39393711 38.93274118 -360.07768153 38.92983395 -355.76141357 38.92831421 C-348.28149741 38.92726459 -340.80161608 38.93354921 -333.32170868 38.94478989 C-322.50697104 38.96103153 -311.69225027 38.96625152 -300.87750176 38.96876587 C-283.33206193 38.97314507 -265.78664068 38.98646028 -248.24121094 39.00537109 C-231.19563897 39.02372407 -214.15007204 39.03788342 -197.10449219 39.04638672 C-195.52893486 39.04717489 -195.52893486 39.04717489 -193.9215481 39.04797898 C-188.65223759 39.05058902 -183.38292704 39.05311645 -178.11361647 39.05560279 C-134.38692936 39.0763423 -90.66026251 39.11157396 -46.93359375 39.15625 C-46.80598663 38.54141251 -46.67837952 37.92657501 -46.54690552 37.29310608 C-46.3743222 36.48489914 -46.20173889 35.6766922 -46.02392578 34.84399414 C-45.85506866 34.04353165 -45.68621155 33.24306915 -45.51223755 32.41835022 C-42.90042469 22.20795404 -33.75360866 13.38352607 -25.12109375 7.90625 C-17.14139682 3.40079035 -9.12954561 0.73774106 0 0 Z M-18.55859375 38.09375 C-22.9234908 44.64109558 -22.60773068 51.53331702 -21.93359375 59.15625 C-20.2293327 65.90857542 -15.45083407 70.2064075 -9.93359375 74.15625 C-4.11337017 77.56053171 1.47559769 78.09908919 8.06640625 77.15625 C16.21991151 74.59270249 22.24318402 69.56824002 26.1953125 61.9921875 C28.97401717 54.93951108 28.49798104 47.89254795 25.50390625 40.96875 C21.76411567 34.27506687 15.39305836 29.26731925 8.06640625 27.15625 C-3.21782165 25.60641006 -11.34661914 29.4948572 -18.55859375 38.09375 Z " fill="#000000" transform="translate(406.93359375,203.84375)"/>
<path d="M0 0 C15.7557076 0.55685453 28.4200122 6.9874618 39.125 18.3125 C44.0842323 24.33642624 49.125 31.21160348 49.125 39.3125 C50.2388145 39.31022168 50.2388145 39.31022168 51.3751303 39.30789733 C95.36565497 39.21842204 139.35616976 39.1497725 183.34676716 39.10823868 C188.62652332 39.10323574 193.90627928 39.09805846 199.18603516 39.09277344 C200.23715769 39.0917242 201.28828023 39.09067495 202.37125497 39.08959392 C219.40006089 39.07217965 236.42881291 39.04063632 253.45758684 39.00388882 C270.92534413 38.96650784 288.39307316 38.94427017 305.86086881 38.93614602 C316.64301109 38.93065235 327.425001 38.91328921 338.20709638 38.88083413 C345.59666734 38.85972135 352.9861593 38.85329261 360.37575825 38.85849449 C364.64181747 38.86106132 368.90761008 38.85707404 373.17362213 38.8356781 C377.0784704 38.81623626 380.98287236 38.81521434 384.88774101 38.82890442 C386.30103716 38.83059681 387.71436097 38.82550227 389.12760253 38.81296727 C402.26742194 38.70318944 402.26742194 38.70318944 407.125 43.3125 C410.04702617 47.51819084 409.76149352 52.39131838 409.125 57.3125 C407.07160858 61.41928284 405.39303836 63.67093103 401.125 65.3125 C398.37117171 65.56089699 398.37117171 65.56089699 395.13549423 65.55859566 C393.9013748 65.56257775 392.66725536 65.56655985 391.39573836 65.57066262 C390.02405838 65.56495654 388.65237916 65.55906535 387.28070068 65.55300903 C385.82531797 65.55388095 384.36993556 65.55563168 382.91455483 65.55818737 C378.9101982 65.56266764 374.90594818 65.5546479 370.90160513 65.54463124 C366.58534336 65.53600882 362.26908778 65.53891605 357.95281982 65.54043579 C350.47290366 65.54148541 342.99302233 65.53520079 335.51311493 65.52396011 C324.69837729 65.50771847 313.88365652 65.50249848 303.06890801 65.49998413 C285.52346818 65.49560493 267.97804693 65.48228972 250.43261719 65.46337891 C233.38704522 65.44502593 216.34147829 65.43086658 199.29589844 65.42236328 C197.72034111 65.42157511 197.72034111 65.42157511 196.11295435 65.42077102 C190.84364384 65.41816098 185.57433329 65.41563355 180.30502272 65.41314721 C136.57833561 65.3924077 92.85166876 65.35717604 49.125 65.3125 C48.99739288 65.92733749 48.86978577 66.54217499 48.73831177 67.17564392 C48.56572845 67.98385086 48.39314514 68.7920578 48.21533203 69.62475586 C48.04647491 70.42521835 47.8776178 71.22568085 47.7036438 72.05039978 C45.09183094 82.26079596 35.94501491 91.08522393 27.3125 96.5625 C14.06015928 104.04497545 -0.16647192 106.11553914 -15.0078125 102.5625 C-29.68721899 97.54389949 -39.86132098 88.63452891 -47.46484375 75.20703125 C-48.88480113 72.29238188 -49.87851246 69.39320726 -50.875 66.3125 C-52.82720459 66.29848145 -52.82720459 66.29848145 -54.81884766 66.28417969 C-59.66098895 66.24421953 -64.50249893 66.17844343 -69.34423828 66.10498047 C-71.43725456 66.07680587 -73.53037654 66.05557391 -75.62353516 66.04150391 C-78.63759337 66.02002606 -81.65038537 65.97335012 -84.6640625 65.921875 C-85.59554108 65.92064636 -86.52701965 65.91941772 -87.48672485 65.91815186 C-93.23579231 65.78939673 -96.45884603 65.07372335 -100.875 61.3125 C-103.79702617 57.10680916 -103.51149352 52.23368162 -102.875 47.3125 C-100.80869187 43.17988374 -99.12627875 41.02810587 -94.875 39.3125 C-92.72357178 39.0340271 -92.72357178 39.0340271 -90.38183594 38.99365234 C-89.50122498 38.97378265 -88.62061401 38.95391296 -87.71331787 38.93344116 C-86.30061615 38.91611435 -86.30061615 38.91611435 -84.859375 38.8984375 C-83.88840881 38.87907135 -82.91744263 38.8597052 -81.91705322 38.8397522 C-78.81979114 38.78003491 -75.72249174 38.7336022 -72.625 38.6875 C-70.52342141 38.64931302 -68.42185835 38.61026086 -66.3203125 38.5703125 C-61.17200132 38.47433969 -56.02361688 38.3902794 -50.875 38.3125 C-50.55321777 37.50208252 -50.23143555 36.69166504 -49.89990234 35.85668945 C-49.46629395 34.78636475 -49.03268555 33.71604004 -48.5859375 32.61328125 C-48.16103027 31.55536377 -47.73612305 30.49744629 -47.29833984 29.4074707 C-45.159924 24.75760833 -42.24814554 21.12112822 -38.875 17.3125 C-38.39933594 16.70921875 -37.92367187 16.1059375 -37.43359375 15.484375 C-30.06499108 6.94218287 -17.46213158 1.71227469 -6.4609375 0.48828125 C-4.30612282 0.34180593 -2.15279817 0.17361276 0 0 Z M-21.46484375 38.1484375 C-25.3809495 44.15819536 -26.49007981 49.81545251 -25.4375 56.8984375 C-23.59728679 64.79601917 -19.40563944 69.63715585 -12.875 74.3125 C-7.05477642 77.71678171 -1.46580856 78.25533919 5.125 77.3125 C12.47554678 75.00141106 17.86278478 70.70582284 22.125 64.3125 C25.35173325 57.86986147 25.25117048 49.77441594 23.5078125 42.8671875 C20.57474676 36.24832235 14.92084489 31.9478055 8.8125 28.375 C-3.23100854 24.90483652 -13.66935271 28.30732115 -21.46484375 38.1484375 Z " fill="#000000" transform="translate(102.875,75.6875)"/>
</svg>
